<?xml version="1.0" encoding="UTF-8"?>
<!DOCTYPE svg PUBLIC "-//W3C//DTD SVG 1.1//EN" "http://www.w3.org/Graphics/SVG/1.1/DTD/svg11.dtd">
<svg version="1.2" viewBox="0 0 21000 12000" preserveAspectRatio="xMidYMid" fill-rule="evenodd" stroke-width="28.222" stroke-linejoin="round" xmlns="http://www.w3.org/2000/svg" xmlns:ooo="http://xml.openoffice.org/svg/export" xmlns:xlink="http://www.w3.org/1999/xlink" xmlns:presentation="http://sun.com/xmlns/staroffice/presentation" xmlns:smil="http://www.w3.org/2001/SMIL20/" xml:space="preserve">
   <g id="id3">
    <path fill="rgb(51,51,51)" stroke="none" d="M 7236,1100 L 7236,1100 C 6650,1100 6075,1254 5568,1547 5061,1840 4640,2261 4347,2768 4054,3275 3900,3850 3900,4436 L 3900,6665 3900,6665 C 3900,7251 4054,7826 4347,8333 4640,8840 5061,9261 5568,9554 6075,9847 6650,10001 7236,10001 L 14465,10001 14465,10001 C 15051,10001 15626,9847 16133,9554 16640,9261 17061,8840 17354,8333 17647,7826 17801,7251 17801,6665 L 17801,4435 17801,4436 17801,4436 C 17801,3850 17647,3275 17354,2768 17061,2261 16640,1840 16133,1547 15626,1254 15051,1100 14465,1100 L 7236,1100 Z"/>
   </g>
   <g id="id4">
    <path fill="rgb(0,0,0)" stroke="none" d="M 10900,6800 L 2300,6800 2300,4400 19500,4400 19500,6800 10900,6800 Z"/>
   </g>
   <g id="id5">
    <path fill="rgb(153,0,0)" stroke="none" d="M 15001,5601 C 15001,5776 14955,5949 14867,6101 14779,6253 14653,6379 14501,6467 14349,6555 14176,6601 14000,6601 13825,6601 13652,6555 13500,6467 13348,6379 13222,6253 13134,6101 13046,5949 13000,5776 13000,5601 13000,5425 13046,5252 13134,5100 13222,4948 13348,4822 13500,4734 13652,4646 13825,4600 14000,4600 14176,4600 14349,4646 14501,4734 14653,4822 14779,4948 14867,5100 14955,5252 15001,5425 15001,5600 L 15001,5601 Z"/>
   </g>
   <g id="id6">
    <path fill="rgb(51,51,51)" stroke="none" d="M 9001,5601 C 9001,5776 8955,5949 8867,6101 8779,6253 8653,6379 8501,6467 8349,6555 8176,6601 8000,6601 7825,6601 7652,6555 7500,6467 7348,6379 7222,6253 7134,6101 7046,5949 7000,5776 7000,5601 7000,5425 7046,5252 7134,5100 7222,4948 7348,4822 7500,4734 7652,4646 7825,4600 8000,4600 8176,4600 8349,4646 8501,4734 8653,4822 8779,4948 8867,5100 8955,5252 9001,5425 9001,5600 L 9001,5601 Z"/>
   </g>
   <g id="id7">
    <path fill="rgb(178,178,178)" stroke="none" d="M 14601,5551 C 14601,5665 14571,5777 14514,5876 14457,5975 14375,6057 14276,6114 14177,6171 14065,6201 13951,6201 13836,6201 13724,6171 13625,6114 13526,6057 13444,5975 13387,5876 13330,5777 13300,5665 13300,5551 13300,5436 13330,5324 13387,5225 13444,5126 13526,5044 13625,4987 13724,4930 13836,4900 13951,4900 14065,4900 14177,4930 14276,4987 14375,5044 14457,5126 14514,5225 14571,5324 14601,5436 14601,5551 L 14601,5551 Z"/>
   </g>
   <g id="id8">
    <path fill="rgb(178,178,178)" stroke="none" d="M 8601,5556 C 8601,5670 8571,5782 8514,5881 8457,5980 8375,6062 8276,6119 8177,6176 8065,6206 7951,6206 7836,6206 7724,6176 7625,6119 7526,6062 7444,5980 7387,5881 7330,5782 7300,5670 7300,5556 7300,5441 7330,5329 7387,5230 7444,5131 7526,5049 7625,4992 7724,4935 7836,4905 7950,4905 8065,4905 8177,4935 8276,4992 8375,5049 8457,5131 8514,5230 8571,5329 8601,5441 8601,5556 L 8601,5556 Z"/>
   </g>
</svg>